<svg width="642" height="642" viewBox="0 0 642 642" fill="none"
	xmlns="http://www.w3.org/2000/svg">
	<g fill="#0006">
		<path d="M70.4905 171.758V435.202H169.868L165.528 469.809H31V171.758H70.4905Z" fill="inherit"/>
		<path d="M279.802 167C312.784 167 338.532 179.833 357.048 205.5C375.563 230.878 384.821 269.378 384.821 321C384.821 372.045 375.563 410.545 357.048 436.5C338.532 462.167 312.784 475 279.802 475C246.821 475 220.928 462.311 202.123 436.933C183.608 411.554 174.35 373.054 174.35 321.433C174.35 270.388 183.752 231.888 202.557 205.933C221.362 179.978 247.111 167 279.802 167ZM279.802 199.011C258.972 199.011 243.06 208.528 232.067 227.562C221.362 246.596 216.01 277.886 216.01 321.433C216.01 364.691 221.507 395.693 232.501 414.438C243.494 433.184 259.262 442.556 279.802 442.556C300.633 442.556 316.4 433.328 327.104 414.871C337.809 396.125 343.161 364.835 343.161 321C343.161 277.453 337.809 246.307 327.104 227.562C316.4 208.528 300.633 199.011 279.802 199.011Z" fill="inherit"/>
		<path d="M533.321 167C548.654 167 562.107 169.74 573.679 175.219C585.541 180.41 597.258 188.485 608.83 199.444L587.132 221.506C577.874 213.431 569.195 207.663 561.094 204.202C553.283 200.742 544.025 199.011 533.321 199.011C513.359 199.011 497.013 208.24 484.283 226.697C471.843 245.154 465.623 276.444 465.623 320.567C465.623 351.425 467.937 375.794 472.566 393.674C477.484 411.266 484.572 423.811 493.83 431.309C503.377 438.807 515.384 442.556 529.849 442.556C545.472 442.556 559.793 438.23 572.811 429.579V337.006H532.019L527.679 304.994H611V448.612C585.541 466.204 558.346 475 529.415 475C459.113 475 423.962 423.522 423.962 320.567C423.962 286.826 428.881 258.419 438.717 235.348C448.554 212.277 461.717 195.118 478.208 183.871C494.698 172.624 513.069 167 533.321 167Z" fill="inherit"/>
	</g>
</svg>
